<svg xmlns="http://www.w3.org/2000/svg" viewBox="0 0 493.3538873994638 651.77424" width="493.354" height="651.774">
    <path d="M51.452 3.257c5.867 2.842 11.173 6.452 16.433 10.285 2.978 2.116 6.063 3.87 9.27 5.613 6.442 4.176 10.038 6.739 14 9 5.075 4.032 7.41 5.477 10 7.25l3.172 2.145 3.828 2.605c35.15 23.97 35.15 23.97 76.844 25.535 15.888-2.256 32.185-2.085 48.21-2.422a974.23 974.23 0 0 0 9.967-.27c20.873-.651 39.127-.217 58.979 7.157 1.49.5 2.98.995 4.473 1.484 28.51 9.63 52.9 27.928 66.527 55.079 2.22 4.514 4.298 9.086 6.324 13.69a456.73 456.73 0 0 1 3.443 7.92c3.07 7.055 6.48 12.724 13.733 15.964 7.652 2.642 15.764 3.65 23.762 4.69 19.762 2.625 33.975 7.129 46.738 23.173 9.827 13.659 14.097 28.21 14.238 44.809l.025 2.803c.014 1.952.024 3.904.032 5.857.012 1.963.032 3.926.062 5.89.193 12.83-.66 24.327-4.357 36.64l-.84 2.823a128.418 128.418 0 0 1-2.348 6.678l-.893 2.368c-5.365 13.78-12.458 25.8-21.92 37.132l-1.8 2.262c-19.827 24.085-49.414 31.986-78.4 38.972l-4.816 1.17a889.74 889.74 0 0 1-9.396 2.224c-11.476 2.722-23.92 5.783-30.587 16.372-5.185 10.123-4.475 26.86-1.742 37.7 7.736 23.982 25.63 43.183 44.457 59.304 15.677 13.694 31.814 28.286 44.285 44.996l1.462 1.918c21.19 27.886 33.33 57.804 39.947 92.045.846 4.35 1.722 8.692 2.59 13.037h-402c-4.464-13.396-8.763-26.63-12.374-40.25l-.698-2.618c-9.71-36.518-17.128-73.5-22.177-110.944l-.458-3.312c-3.02-23.722-3.63-47.566-3.553-71.446.012-3.603.005-7.206-.007-10.81-.057-21.347.34-42.702 4.33-63.745l.634-3.42c8.14-42.51 18.386-90.095 46.304-124.455-1.468-3.833-3.3-5.053-6.875-6.953l-2.988-1.63-3.137-1.667c-8.02-4.272-15.05-8.893-22-14.75a837.1 837.1 0 0 0-3.563-2.75c-13.197-11.588-19.645-30.05-24.973-46.334l-.131-.771c-1.15-6.61-2.05-12.44-1.993-19.464l.153-3.758c.003-2.502-.143-4.85-.126-7.351.017-2.502.02-7.167.014-10.984.005-2.439.012-4.568.021-7.008l.152-4.52c.054-2.653-.19-10.474.756-16.75.36-1.69.4-3.69.733-5.384 10.12-50.057 10.12-50.057 27.19-62.563 6.274-3.092 14.557-2.436 21.064-.261zm-3.734 28.585c-9.788 14.487-3.927 49.579-1.14 65.77 1.743 8.334 4.009 17.472 10.39 23.48 4.316 2.794 7.682 3.49 12.75 2.626 5.467-3.506 8.469-9.615 11.75-15.063 7.303-11.538 17.186-17.031 30.25-20.188l3.003-.636c2.59-.504 2.59-.504 4.434-2.676-.52-5.96-4.01-8.865-8-13l-1.622-1.684C102.55 63.259 95.52 56.334 87.62 50.128c-2.37-1.897-4.564-3.898-6.778-5.973-3.762-3.387-7.76-6.193-12-8.938l-1.815-1.181c-5.714-3.608-13.225-6.406-19.31-2.194zm185.566 132.864c-4.58 5.268-6.13 10.609-6.13 17.449.847 7.26 4.009 12.562 9.626 17.25 5.74 4.047 11.94 5.424 18.875 4.25 7.774-2.174 14.895-6.472 19.438-13.234 2.69-5.74 2.72-11.904 1.062-17.953-2.528-6.383-6.91-11.452-12.938-14.75-11.914-5.123-20.803-1.41-29.933 6.988zm180.809 47.699c-3.808 5.404-3.707 10.256-2.938 16.75 3.11 9.557 9.104 17.836 18.035 22.629 9.652 4.198 15.485 4.873 25.41 1.086 7.103-3.427 13.867-8.984 17.004-16.418 1.91-7.966 1.306-16.046-2.45-23.297-4.872-5.77-9.784-8.585-17.214-9.316a618.171 618.171 0 0 0-9.806-.576c-1.835-.1-3.67-.24-5.502-.381-9.517-.475-16.248 2.246-22.54 9.523zm6.062 70.75c-2.696 3.454-4.827 7.202-7 11-10.538 18.212-27.527 32.268-48 38-6.74 1.617-13.332 2.41-20.25 2.688l-2.77.116c-31.635 1.125-52.675-11.822-75.355-32.554l-2.586-2.422c-2.461-2.207-3.562-2.764-6.851-3.203-4.292.505-5.528 2.05-8.188 5.375-2.464 4.255-2.16 7.28-1 12 6.289 16.205 21.715 25.18 37 32 19.619 7.758 38.097 10.623 59 7 1.384-.212 2.768-.421 4.152-.63 28.018-4.357 55.368-16.555 73.098-39.37a191.35 191.35 0 0 0 2.75-4l1.738-2.55c7.79-11.344 7.79-11.344 10.262-24.45-6.001-2.134-10.567-2.895-16 1z" fill="currentColor" />
</svg>
